<svg xmlns="http://www.w3.org/2000/svg" viewBox="0 0 490 260" font-family="ui-sans-serif,-apple-system,Segoe UI,Roboto,Helvetica,Arial,sans-serif" role="img" aria-label="Packing 4 bytes (32 bits) into three 11-bit words, MSB-first, last word zero-padded">
<title>Packing 4 bytes (32 bits) into three 11-bit words, MSB-first, last word zero-padded</title>
<rect x="0.5" y="0.5" width="489" height="259" rx="10" fill="#ffffff" stroke="#e5e7eb"/>
<path d="M44,109 L44,104 L140,104 L140,109" fill="none" stroke="#d97706" stroke-width="1.5"/><text x="92.0" y="99" fill="#d97706" font-size="12" font-weight="600" text-anchor="middle">byte 0 = 0x61</text>
<path d="M140,109 L140,104 L236,104 L236,109" fill="none" stroke="#d97706" stroke-width="1.5"/><text x="188.0" y="99" fill="#d97706" font-size="12" font-weight="600" text-anchor="middle">byte 1 = 0x98</text>
<path d="M236,109 L236,104 L332,104 L332,109" fill="none" stroke="#d97706" stroke-width="1.5"/><text x="284.0" y="99" fill="#d97706" font-size="12" font-weight="600" text-anchor="middle">byte 2 = 0xBC</text>
<path d="M332,109 L332,104 L428,104 L428,109" fill="none" stroke="#d97706" stroke-width="1.5"/><text x="380.0" y="99" fill="#d97706" font-size="12" font-weight="600" text-anchor="middle">byte 3 = 0x44</text>
<rect x="44" y="118" width="12" height="30" rx="3" fill="#ffffff" stroke="#475569" stroke-width="1.2"/><text x="50.0" y="136.2" fill="#334155" font-size="9" font-weight="normal" text-anchor="middle">0</text>
<rect x="56" y="118" width="12" height="30" rx="3" fill="#ffffff" stroke="#475569" stroke-width="1.2"/><text x="62.0" y="136.2" fill="#334155" font-size="9" font-weight="normal" text-anchor="middle">1</text>
<rect x="68" y="118" width="12" height="30" rx="3" fill="#ffffff" stroke="#475569" stroke-width="1.2"/><text x="74.0" y="136.2" fill="#334155" font-size="9" font-weight="normal" text-anchor="middle">1</text>
<rect x="80" y="118" width="12" height="30" rx="3" fill="#ffffff" stroke="#475569" stroke-width="1.2"/><text x="86.0" y="136.2" fill="#334155" font-size="9" font-weight="normal" text-anchor="middle">0</text>
<rect x="92" y="118" width="12" height="30" rx="3" fill="#ffffff" stroke="#475569" stroke-width="1.2"/><text x="98.0" y="136.2" fill="#334155" font-size="9" font-weight="normal" text-anchor="middle">0</text>
<rect x="104" y="118" width="12" height="30" rx="3" fill="#ffffff" stroke="#475569" stroke-width="1.2"/><text x="110.0" y="136.2" fill="#334155" font-size="9" font-weight="normal" text-anchor="middle">0</text>
<rect x="116" y="118" width="12" height="30" rx="3" fill="#ffffff" stroke="#475569" stroke-width="1.2"/><text x="122.0" y="136.2" fill="#334155" font-size="9" font-weight="normal" text-anchor="middle">0</text>
<rect x="128" y="118" width="12" height="30" rx="3" fill="#ffffff" stroke="#475569" stroke-width="1.2"/><text x="134.0" y="136.2" fill="#334155" font-size="9" font-weight="normal" text-anchor="middle">1</text>
<rect x="140" y="118" width="12" height="30" rx="3" fill="#ffffff" stroke="#475569" stroke-width="1.2"/><text x="146.0" y="136.2" fill="#334155" font-size="9" font-weight="normal" text-anchor="middle">1</text>
<rect x="152" y="118" width="12" height="30" rx="3" fill="#ffffff" stroke="#475569" stroke-width="1.2"/><text x="158.0" y="136.2" fill="#334155" font-size="9" font-weight="normal" text-anchor="middle">0</text>
<rect x="164" y="118" width="12" height="30" rx="3" fill="#ffffff" stroke="#475569" stroke-width="1.2"/><text x="170.0" y="136.2" fill="#334155" font-size="9" font-weight="normal" text-anchor="middle">0</text>
<rect x="176" y="118" width="12" height="30" rx="3" fill="#ffffff" stroke="#475569" stroke-width="1.2"/><text x="182.0" y="136.2" fill="#334155" font-size="9" font-weight="normal" text-anchor="middle">1</text>
<rect x="188" y="118" width="12" height="30" rx="3" fill="#ffffff" stroke="#475569" stroke-width="1.2"/><text x="194.0" y="136.2" fill="#334155" font-size="9" font-weight="normal" text-anchor="middle">1</text>
<rect x="200" y="118" width="12" height="30" rx="3" fill="#ffffff" stroke="#475569" stroke-width="1.2"/><text x="206.0" y="136.2" fill="#334155" font-size="9" font-weight="normal" text-anchor="middle">0</text>
<rect x="212" y="118" width="12" height="30" rx="3" fill="#ffffff" stroke="#475569" stroke-width="1.2"/><text x="218.0" y="136.2" fill="#334155" font-size="9" font-weight="normal" text-anchor="middle">0</text>
<rect x="224" y="118" width="12" height="30" rx="3" fill="#ffffff" stroke="#475569" stroke-width="1.2"/><text x="230.0" y="136.2" fill="#334155" font-size="9" font-weight="normal" text-anchor="middle">0</text>
<rect x="236" y="118" width="12" height="30" rx="3" fill="#ffffff" stroke="#475569" stroke-width="1.2"/><text x="242.0" y="136.2" fill="#334155" font-size="9" font-weight="normal" text-anchor="middle">1</text>
<rect x="248" y="118" width="12" height="30" rx="3" fill="#ffffff" stroke="#475569" stroke-width="1.2"/><text x="254.0" y="136.2" fill="#334155" font-size="9" font-weight="normal" text-anchor="middle">0</text>
<rect x="260" y="118" width="12" height="30" rx="3" fill="#ffffff" stroke="#475569" stroke-width="1.2"/><text x="266.0" y="136.2" fill="#334155" font-size="9" font-weight="normal" text-anchor="middle">1</text>
<rect x="272" y="118" width="12" height="30" rx="3" fill="#ffffff" stroke="#475569" stroke-width="1.2"/><text x="278.0" y="136.2" fill="#334155" font-size="9" font-weight="normal" text-anchor="middle">1</text>
<rect x="284" y="118" width="12" height="30" rx="3" fill="#ffffff" stroke="#475569" stroke-width="1.2"/><text x="290.0" y="136.2" fill="#334155" font-size="9" font-weight="normal" text-anchor="middle">1</text>
<rect x="296" y="118" width="12" height="30" rx="3" fill="#ffffff" stroke="#475569" stroke-width="1.2"/><text x="302.0" y="136.2" fill="#334155" font-size="9" font-weight="normal" text-anchor="middle">1</text>
<rect x="308" y="118" width="12" height="30" rx="3" fill="#ffffff" stroke="#475569" stroke-width="1.2"/><text x="314.0" y="136.2" fill="#334155" font-size="9" font-weight="normal" text-anchor="middle">0</text>
<rect x="320" y="118" width="12" height="30" rx="3" fill="#ffffff" stroke="#475569" stroke-width="1.2"/><text x="326.0" y="136.2" fill="#334155" font-size="9" font-weight="normal" text-anchor="middle">0</text>
<rect x="332" y="118" width="12" height="30" rx="3" fill="#ffffff" stroke="#475569" stroke-width="1.2"/><text x="338.0" y="136.2" fill="#334155" font-size="9" font-weight="normal" text-anchor="middle">0</text>
<rect x="344" y="118" width="12" height="30" rx="3" fill="#ffffff" stroke="#475569" stroke-width="1.2"/><text x="350.0" y="136.2" fill="#334155" font-size="9" font-weight="normal" text-anchor="middle">1</text>
<rect x="356" y="118" width="12" height="30" rx="3" fill="#ffffff" stroke="#475569" stroke-width="1.2"/><text x="362.0" y="136.2" fill="#334155" font-size="9" font-weight="normal" text-anchor="middle">0</text>
<rect x="368" y="118" width="12" height="30" rx="3" fill="#ffffff" stroke="#475569" stroke-width="1.2"/><text x="374.0" y="136.2" fill="#334155" font-size="9" font-weight="normal" text-anchor="middle">0</text>
<rect x="380" y="118" width="12" height="30" rx="3" fill="#ffffff" stroke="#475569" stroke-width="1.2"/><text x="386.0" y="136.2" fill="#334155" font-size="9" font-weight="normal" text-anchor="middle">0</text>
<rect x="392" y="118" width="12" height="30" rx="3" fill="#ffffff" stroke="#475569" stroke-width="1.2"/><text x="398.0" y="136.2" fill="#334155" font-size="9" font-weight="normal" text-anchor="middle">1</text>
<rect x="404" y="118" width="12" height="30" rx="3" fill="#ffffff" stroke="#475569" stroke-width="1.2"/><text x="410.0" y="136.2" fill="#334155" font-size="9" font-weight="normal" text-anchor="middle">0</text>
<rect x="416" y="118" width="12" height="30" rx="3" fill="#ffffff" stroke="#475569" stroke-width="1.2"/><text x="422.0" y="136.2" fill="#334155" font-size="9" font-weight="normal" text-anchor="middle">0</text>
<rect x="428" y="118" width="12" height="30" rx="3" fill="#eef2f7" stroke="#cbd5e1" stroke-width="1.2"/><text x="434.0" y="136.2" fill="#94a3b8" font-size="9" font-weight="normal" text-anchor="middle">0</text>
<path d="M44,155 L44,160 L176,160 L176,155" fill="none" stroke="#2563eb" stroke-width="1.5"/><text x="110.0" y="176" fill="#2563eb" font-size="12" font-weight="600" text-anchor="middle">word 2 = 780</text>
<path d="M176,155 L176,160 L308,160 L308,155" fill="none" stroke="#2563eb" stroke-width="1.5"/><text x="242.0" y="176" fill="#2563eb" font-size="12" font-weight="600" text-anchor="middle">word 3 = 1583</text>
<path d="M308,155 L308,160 L440,160 L440,155" fill="none" stroke="#2563eb" stroke-width="1.5"/><text x="374.0" y="176" fill="#2563eb" font-size="12" font-weight="600" text-anchor="middle">word 4 = 136</text>
<text x="434" y="80" fill="#94a3b8" font-size="10" font-weight="normal" font-style="italic" text-anchor="middle">1 zero-pad bit</text>
<path d="M434,84 L434,114" stroke="#94a3b8" stroke-width="1" stroke-dasharray="3 2"/>
<text x="245.0" y="244" fill="#334155" font-size="11" font-weight="normal" font-style="normal" text-anchor="middle">byte and word grids realign only every 88 bits (11 bytes = 8 words)</text>
</svg>
